<svg xmlns:dc="http://purl.org/dc/elements/1.1/" xmlns:cc="http://creativecommons.org/ns#" xmlns:rdf="http://www.w3.org/1999/02/22-rdf-syntax-ns#" xmlns:svg="http://www.w3.org/2000/svg" xmlns="http://www.w3.org/2000/svg" xml:space="preserve" enable-background="new -29 -22 352 342" version="1.1" width="352" height="342" style=""><rect id="backgroundrect" width="100%" height="100%" x="0" y="0" fill="none" stroke="none"/><metadata id="metadata10"><rdf:RDF><cc:Work rdf:about=""><dc:format>image/svg+xml</dc:format><dc:type rdf:resource="http://purl.org/dc/dcmitype/StillImage"/></cc:Work></rdf:RDF></metadata><defs id="defs8"/><g class="currentLayer" style=""><title>Layer 1</title><circle r="33.099998474121094" cy="52.96814179420471" cx="45.28318500518799" fill="#000000" id="path3010" class="" fill-opacity="1"/><circle r="33.099998474121094" cy="52.96814179420471" cx="45.28318500518799" fill="#6d6d6d" class="selected" fill-opacity="1" id="svg_2"/><path id="path3" d="M256.8132751464844,54.018584442138675 H155.91327514648438 c-51.2,0 -92.6,41.3 -94.2,94.2 v100.8 c0,52.9 43,94.2 94.2,94.2 h100.8 c52.9,0 94.2,-43 94.2,-94.2 V148.21858444213868 C351.0132751464844,95.31858444213867 308.0132751464844,54.018584442138675 256.8132751464844,54.018584442138675 zM136.11327514648437,173.01858444213866 c-19.2,0 -34.7,-15.5 -34.7,-34.7 s15.5,-34.7 34.7,-34.7 s34.7,15.5 34.7,34.7 S155.3132751464844,173.01858444213866 136.11327514648437,173.01858444213866 zM248.51327514648438,310.21858444213865 c-33.8,0 -61.2,-27.4 -61.2,-61.2 c0,-33.8 27.4,-61.2 61.2,-61.2 c33.8,0 61.2,27.4 61.2,61.2 C309.71327514648436,282.8185844421387 282.3132751464844,310.21858444213865 248.51327514648438,310.21858444213865 z" fill="#6d6d6d" class="" fill-opacity="1"/></g></svg>